<svg width="50" height="50" viewBox="0 0 50 50" fill="none" xmlns="http://www.w3.org/2000/svg">
<circle opacity="0.4" cx="25" cy="25" r="25" fill="#C4C4C4"/>
<g opacity="0.5" clip-path="url(#clip0_0_157)">
<path d="M35.2857 19.8572C35.8572 28.4286 29.5714 35.2858 21.5714 35.2858C18.815 35.2858 16.0585 34.9164 13.8959 33.8808C13.4006 33.6436 13.5942 32.9829 14.1422 32.9466C16.8051 32.77 19.0088 32.1341 20.4286 30.7144C14.2384 28.6509 13.1706 20.9995 14.2826 17.0083C14.4132 16.5396 15.0225 16.5372 15.2681 16.9572C17.1669 20.2043 20.7774 22.0172 25.3024 21.5989C25.1066 21.055 25 20.4685 25 19.8572C25 17.0169 27.3025 14.7144 30.1429 14.7144C31.878 14.7144 33.4124 15.5736 34.3438 16.8897L36.3062 16.6094C36.7952 16.5395 37.1365 17.0811 36.8625 17.492L35.2857 19.8572Z" fill="#12131A"/>
</g>
<defs>
<clipPath id="clip0_0_157">
<rect width="32" height="32" fill="white" transform="translate(9 9)"/>
</clipPath>
</defs>
</svg>
