<svg width="50" height="50" viewBox="0 0 50 50" fill="none" xmlns="http://www.w3.org/2000/svg">
<circle opacity="0.4" cx="25" cy="25" r="25" fill="#C4C4C4"/>
<g opacity="0.5">
<path d="M25 28.5C26.933 28.5 28.5 26.933 28.5 25C28.5 23.0669 26.933 21.5 25 21.5C23.0669 21.5 21.5 23.0669 21.5 25C21.5 26.933 23.0669 28.5 25 28.5Z" fill="#12131A"/>
<path fill-rule="evenodd" clip-rule="evenodd" d="M19.1667 13.3334C15.945 13.3334 13.3333 15.9451 13.3333 19.1667V30.8334C13.3333 34.055 15.945 36.6667 19.1667 36.6667H30.8333C34.055 36.6667 36.6667 34.055 36.6667 30.8334V19.1667C36.6667 15.9451 34.055 13.3334 30.8333 13.3334H19.1667ZM25 30.8334C28.2216 30.8334 30.8333 28.2217 30.8333 25C30.8333 21.7784 28.2216 19.1667 25 19.1667C21.7783 19.1667 19.1667 21.7784 19.1667 25C19.1667 28.2217 21.7783 30.8334 25 30.8334ZM33.1667 18C33.1667 18.6444 32.6443 19.1667 32 19.1667C31.3556 19.1667 30.8333 18.6444 30.8333 18C30.8333 17.3557 31.3556 16.8334 32 16.8334C32.6443 16.8334 33.1667 17.3557 33.1667 18Z" fill="#12131A"/>
</g>
</svg>
