<svg width="50" height="50" viewBox="0 0 50 50" fill="none" xmlns="http://www.w3.org/2000/svg">
<circle opacity="0.4" cx="25" cy="25" r="25" fill="#C4C4C4"/>
<g opacity="0.5">
<path d="M25 37.6666C25 38.0348 25.2988 38.335 25.6665 38.3169C32.7207 37.9696 38.3333 32.1402 38.3333 25C38.3333 17.6362 32.3637 11.6666 25 11.6666C17.6362 11.6666 11.6667 17.6362 11.6667 25C11.6667 31.1668 15.8532 36.3557 21.5391 37.8797C21.9462 37.9889 22.3333 37.6725 22.3333 37.251V27.6666H21C20.2636 27.6666 19.6667 27.0697 19.6667 26.3333C19.6667 25.5969 20.2636 25 21 25H22.3333V22.3333C22.3333 20.1242 24.1241 18.3333 26.3333 18.3333H27.6667C28.4031 18.3333 29 18.9303 29 19.6666C29 20.403 28.4031 21 27.6667 21H26.3333C25.5969 21 25 21.5969 25 22.3333V25H27.6667C28.4031 25 29 25.5969 29 26.3333C29 27.0697 28.4031 27.6666 27.6667 27.6666H25V37.6666Z" fill="#12131A"/>
</g>
</svg>
