<svg width="1290" height="40" viewBox="0 0 1290 40" fill="none" xmlns="http://www.w3.org/2000/svg">
<g opacity="0.5">
<path fill-rule="evenodd" clip-rule="evenodd" d="M935.462 7.90144C935.462 9.53473 934.126 10.8505 932.466 10.8505C930.805 10.8505 929.469 9.53473 929.469 7.90144C929.469 6.26812 930.76 4.95239 932.466 4.95239C934.172 4.99776 935.462 6.31348 935.462 7.90144ZM923.106 13.8446C923.106 14.1169 923.106 14.5706 923.106 14.5706C923.106 14.5706 921.677 12.7556 918.633 12.7556C913.608 12.7556 909.689 16.5215 909.689 21.7389C909.689 26.9111 913.562 30.7221 918.633 30.7221C921.724 30.7221 923.106 28.862 923.106 28.862V29.6333C923.106 29.9962 923.383 30.2685 923.751 30.2685H927.487V13.2093C927.487 13.2093 924.075 13.2093 923.751 13.2093C923.383 13.2093 923.106 13.5269 923.106 13.8446ZM923.106 24.7786C922.415 25.7767 921.032 26.6387 919.371 26.6387C916.42 26.6387 914.161 24.824 914.161 21.7388C914.161 18.6537 916.42 16.8389 919.371 16.8389C920.985 16.8389 922.46 17.7462 923.106 18.699V24.7786ZM930.252 13.2095H934.679V30.2686H930.252V13.2095ZM996.371 12.7559C993.327 12.7559 991.898 14.5709 991.898 14.5709V4.9978H987.472V30.2688C987.472 30.2688 990.885 30.2688 991.206 30.2688C991.576 30.2688 991.853 29.9512 991.853 29.6337V28.8623C991.853 28.8623 993.282 30.7224 996.325 30.7224C1001.35 30.7224 1005.27 26.9114 1005.27 21.7392C1005.27 16.5671 1001.35 12.7559 996.371 12.7559ZM995.634 26.5934C993.928 26.5934 992.591 25.7313 991.899 24.7331V18.6537C992.591 17.7462 994.066 16.7935 995.634 16.7935C998.585 16.7935 1000.84 18.6082 1000.84 21.6935C1000.84 24.7787 998.585 26.5934 995.634 26.5934ZM985.168 20.1509V30.3138H980.741V20.6501C980.741 17.8372 979.82 16.7029 977.33 16.7029C975.993 16.7029 974.61 17.3835 973.734 18.3815V30.2685H969.307V13.2093H972.811C973.18 13.2093 973.457 13.5269 973.457 13.8446V14.5706C974.748 13.2546 976.454 12.7556 978.16 12.7556C980.096 12.7556 981.711 13.3002 983.001 14.3889C984.568 15.6593 985.168 17.2926 985.168 20.1509ZM958.562 12.7559C955.52 12.7559 954.09 14.5709 954.09 14.5709V4.9978H949.664V30.2688C949.664 30.2688 953.076 30.2688 953.399 30.2688C953.767 30.2688 954.044 29.9512 954.044 29.6337V28.8623C954.044 28.8623 955.473 30.7224 958.516 30.7224C963.542 30.7224 967.461 26.9114 967.461 21.7392C967.507 16.5671 963.589 12.7559 958.562 12.7559ZM957.826 26.5934C956.12 26.5934 954.784 25.7313 954.092 24.7331V18.6537C954.784 17.7462 956.259 16.7935 957.826 16.7935C960.778 16.7935 963.037 18.6082 963.037 21.6935C963.037 24.7787 960.778 26.5934 957.826 26.5934ZM945.837 12.7556C947.175 12.7556 947.866 12.9826 947.866 12.9826V17.0205C947.866 17.0205 944.177 15.7955 941.872 18.3815V30.3138H937.445V13.2093C937.445 13.2093 940.857 13.2093 941.18 13.2093C941.549 13.2093 941.825 13.5269 941.825 13.8446V14.5706C942.656 13.6178 944.454 12.7556 945.837 12.7556ZM897.826 28.0827C897.625 27.6081 897.425 27.0938 897.225 26.6587C896.905 25.9468 896.584 25.2744 896.304 24.6417L896.263 24.6019C893.498 18.669 890.534 12.657 887.409 6.72401L887.289 6.48671C886.968 5.89342 886.647 5.26056 886.327 4.62771C885.927 3.91574 885.526 3.16424 884.884 2.45229C883.603 0.870168 881.759 0 879.796 0C877.793 0 875.99 0.870168 874.668 2.37318C874.067 3.08515 873.627 3.83665 873.226 4.5486C872.905 5.18145 872.584 5.8143 872.265 6.40759L872.144 6.64492C869.059 12.5778 866.054 18.5899 863.289 24.5229L863.25 24.6019C862.968 25.2348 862.648 25.9073 862.328 26.6192C862.127 27.0543 861.927 27.5289 861.727 28.0432C861.205 29.5066 861.045 30.891 861.246 32.3148C861.687 35.2814 863.69 37.7732 866.455 38.8807C867.496 39.3158 868.578 39.5135 869.7 39.5135C870.02 39.5135 870.421 39.474 870.741 39.4344C872.063 39.2762 873.426 38.8411 874.748 38.0896C876.391 37.1798 877.953 35.8745 879.716 33.9762C881.479 35.8745 883.082 37.1798 884.685 38.0896C886.007 38.8411 887.369 39.2762 888.691 39.4344C889.011 39.474 889.412 39.5135 889.733 39.5135C890.854 39.5135 891.976 39.3158 892.978 38.8807C895.783 37.7732 897.746 35.2419 898.187 32.3148C898.507 30.9305 898.347 29.5461 897.826 28.0827ZM879.793 29.7242C877.715 27.1138 876.368 24.6567 875.906 22.5837C875.714 21.7008 875.675 20.9329 875.79 20.2419C875.868 19.6277 876.098 19.0902 876.406 18.6296C877.137 17.5931 878.369 16.9404 879.793 16.9404C881.218 16.9404 882.488 17.5547 883.18 18.6296C883.488 19.0902 883.719 19.6277 883.796 20.2419C883.911 20.9329 883.873 21.7391 883.68 22.5837C883.219 24.6183 881.872 27.0752 879.793 29.7242ZM895.414 31.712C895.139 33.7218 893.768 35.4612 891.849 36.2341C890.909 36.6205 889.89 36.7365 888.872 36.6205C887.892 36.5048 886.914 36.1954 885.894 35.6157C884.485 34.8427 883.074 33.6446 881.429 31.8666C884.014 28.7358 885.582 25.8756 886.169 23.3248C886.443 22.1266 886.482 21.0444 886.365 20.0395C886.208 19.0733 885.856 18.1843 885.307 17.4113C884.093 15.672 882.056 14.6671 879.784 14.6671C877.512 14.6671 875.476 15.7107 874.261 17.4113C873.713 18.1843 873.359 19.0733 873.204 20.0395C873.047 21.0444 873.085 22.1653 873.399 23.3248C873.987 25.8756 875.593 28.7745 878.139 31.9052C876.533 33.6832 875.083 34.8814 873.673 35.6543C872.655 36.2341 871.675 36.5434 870.696 36.6593C869.638 36.7751 868.62 36.6205 867.719 36.2728C865.799 35.4997 864.428 33.7606 864.154 31.7506C864.036 30.7844 864.115 29.8182 864.507 28.7358C864.624 28.3493 864.82 27.9629 865.016 27.4991C865.29 26.8807 865.604 26.2236 865.917 25.5665L865.956 25.4893C868.66 19.7304 871.558 13.8554 874.574 8.13515L874.691 7.90324C875.005 7.32348 875.319 6.70508 875.631 6.12532C875.945 5.50691 876.297 4.92715 876.728 4.4247C877.551 3.49708 878.648 2.99463 879.863 2.99463C881.077 2.99463 882.173 3.49708 882.996 4.4247C883.427 4.92715 883.779 5.50691 884.093 6.12532C884.407 6.70508 884.719 7.32348 885.033 7.90324L885.151 8.13515C888.128 13.8941 891.026 19.769 893.73 25.5279V25.5665C894.042 26.185 894.317 26.8807 894.63 27.4991C894.826 27.9629 895.022 28.3493 895.139 28.7358C895.453 29.7408 895.571 30.707 895.414 31.712Z" fill="black" fill-opacity="0.3"/>
<path fill-rule="evenodd" clip-rule="evenodd" d="M12.7966 15.0458V18.4957L21.0361 18.4921C20.7834 20.3948 20.1421 21.788 19.1673 22.763C17.9657 23.9655 16.0904 25.289 12.7966 25.289C7.71971 25.289 3.74731 21.1941 3.74731 16.1128C3.74731 11.0315 7.71971 6.9364 12.7966 6.9364C15.5366 6.9364 17.5366 8.01425 19.0134 9.40004L21.4458 6.96574C19.3875 4.99702 16.6475 3.48657 12.7998 3.48657C5.84767 3.48657 0 9.15441 0 16.1128C0 23.0711 5.84767 28.7388 12.7998 28.7388C16.552 28.7388 19.3843 27.5071 21.5996 25.1974C23.8781 22.917 24.5858 19.7165 24.5858 17.1283C24.5858 16.3583 24.5275 15.6472 24.4141 15.0458H12.7966ZM82.2984 28.2434V4.41357H78.8182V28.2434H82.2984ZM34.1214 28.7424C38.612 28.7424 42.2719 25.2926 42.2719 20.6109C42.2719 15.8962 38.612 12.4795 34.1214 12.4795C29.6292 12.4795 25.9693 15.8962 25.9693 20.6109C25.9693 25.2926 29.6292 28.7424 34.1214 28.7424ZM34.1227 15.6833C36.5842 15.6833 38.7057 17.6851 38.7057 20.6106C38.7057 23.5033 36.5842 25.5379 34.1227 25.5379C31.6612 25.5379 29.5398 23.5069 29.5398 20.6106C29.5398 17.6851 31.6612 15.6833 34.1227 15.6833ZM51.7082 28.7424C56.1988 28.7424 59.8587 25.2926 59.8587 20.6109C59.8587 15.8962 56.1988 12.4795 51.7082 12.4795C47.216 12.4795 43.5561 15.9 43.5561 20.6109C43.5561 25.2926 47.216 28.7424 51.7082 28.7424ZM51.7072 15.6833C54.1688 15.6833 56.2902 17.6851 56.2902 20.6106C56.2902 23.5033 54.1688 25.5379 51.7072 25.5379C49.2457 25.5379 47.1243 23.5069 47.1243 20.6106C47.1243 17.6851 49.2457 15.6833 51.7072 15.6833ZM76.7102 12.9745V27.5692C76.7102 33.5744 73.1702 36.0271 68.9872 36.0271C65.0488 36.0271 62.678 33.3911 61.7841 31.2355L64.8901 29.9413C65.444 31.2648 66.7994 32.8265 68.9824 32.8265C71.6609 32.8265 73.3208 31.1731 73.3208 28.0606V26.8911H73.1961C72.3977 27.8772 70.8593 28.7388 68.9176 28.7388C64.8545 28.7388 61.1315 25.1973 61.1315 20.6403C61.1315 16.0504 64.8545 12.4795 68.9176 12.4795C70.8544 12.4795 72.3945 13.341 73.1961 14.2979H73.3208V12.9745H76.7102ZM73.5747 20.64C73.5747 17.7768 71.6654 15.6833 69.2363 15.6833C66.7748 15.6833 64.7134 17.7768 64.7134 20.64C64.7134 23.474 66.7748 25.5379 69.2363 25.5379C71.6654 25.5379 73.5747 23.474 73.5747 20.64ZM95.8605 23.2874L98.6297 25.1353C97.7358 26.4587 95.582 28.739 91.8589 28.739C87.2436 28.739 83.796 25.1683 83.796 20.6076C83.796 15.772 87.2728 12.4761 91.4607 12.4761C95.6776 12.4761 97.739 15.8343 98.4143 17.6491L98.7836 18.573L87.9206 23.0749C88.7529 24.7063 90.0453 25.5385 91.8589 25.5385C93.676 25.5385 94.9375 24.644 95.8605 23.2874ZM87.3348 20.3612L94.5962 17.344C94.1978 16.3284 92.9961 15.6208 91.5809 15.6208C89.7687 15.6208 87.244 17.223 87.3348 20.3612Z" fill="black" fill-opacity="0.3"/>
<path fill-rule="evenodd" clip-rule="evenodd" d="M696.197 34.8521C693.669 34.748 691.601 34.03 689.984 32.6968C689.676 32.4421 688.939 31.6785 688.693 31.3564C688.037 30.5006 687.59 29.6678 687.294 28.7438C686.378 25.8995 686.85 22.167 688.642 18.0708C690.175 14.5639 692.541 11.0857 696.67 6.26844C697.277 5.55958 699.087 3.48651 699.101 3.48651C699.103 3.48651 699.006 3.66395 698.881 3.88001C697.809 5.746 696.89 7.94395 696.389 9.84677C695.584 12.9 695.682 15.5202 696.673 17.5519C697.357 18.9518 698.528 20.1641 699.846 20.8342C702.153 22.0072 705.53 22.1041 709.654 21.1181C709.937 21.0499 724.007 17.1738 740.92 12.5042C757.834 7.83435 771.675 4.01657 771.676 4.01971C771.68 4.02376 732.383 21.4753 711.981 30.529C708.751 31.9624 707.888 32.3244 706.369 32.8778C702.487 34.2928 699.008 34.9681 696.197 34.8521Z" fill="black" fill-opacity="0.3"/>
<path fill-rule="evenodd" clip-rule="evenodd" d="M394.943 11.4576C394.827 11.7135 394.663 11.8295 394.314 11.8295H381.319V17.5221H392.167C392.354 17.5221 392.423 17.6148 392.354 17.8008L391.164 20.7287C391.046 20.9843 390.885 21.0999 390.534 21.0999H384.163C382.088 21.0999 381.319 21.7273 381.319 23.1216V27.1412H395.994C396.18 27.1412 396.249 27.2342 396.18 27.42L394.943 30.4643C394.827 30.7194 394.663 30.8358 394.314 30.8358H378.285C377.048 30.8358 376.582 30.4176 376.582 29.488V9.71495C376.582 8.62299 377.189 8.13501 378.798 8.13501H395.994C396.18 8.13501 396.249 8.22828 396.18 8.41368L394.943 11.4576ZM332.42 21.4257V8.693C332.42 8.32142 332.608 8.13525 332.982 8.13525H337.25V21.6347C337.25 28.7452 332.701 31.2313 326.098 31.2313C319.496 31.2313 314.946 28.7452 314.946 21.6347V8.693C314.946 8.32142 315.132 8.13525 315.506 8.13525H319.776V21.4257C319.776 25.6777 321.666 27.4433 326.098 27.4433C330.532 27.4433 332.42 25.6777 332.42 21.4257ZM359.567 27.1879H351.142V23.0287C351.142 21.6344 351.912 21.0073 353.99 21.0073H359.567C362.25 21.0073 362.997 22.0294 362.997 24.121C362.997 26.2121 362.25 27.1879 359.567 27.1879ZM351.142 11.7827H358.681C361.201 11.7827 361.901 12.7279 361.901 14.687C361.901 16.6465 361.201 17.5918 358.681 17.5918H351.142V11.7827ZM364.047 18.8697C365.912 17.8938 366.682 16.0583 366.682 13.8975C366.682 8.87853 362.577 8.13501 358.33 8.13501H348.624C347.014 8.13501 346.409 8.62299 346.409 9.71495V29.488C346.409 30.4176 346.874 30.8358 348.112 30.8358H360.057C364.56 30.8358 367.78 29.0932 367.78 24.5623C367.78 21.8439 366.613 19.5434 364.047 18.8697ZM409.142 18.6603H417.074C420.038 18.6603 420.692 17.5452 420.692 15.2218C420.692 12.9214 420.038 11.7832 417.074 11.7832H409.142V18.6603ZM420.879 21.7043L425.988 30.4407C426.082 30.5798 426.082 30.8358 425.779 30.8358H421.44C421.09 30.8358 420.949 30.6963 420.809 30.4643L416.19 22.1922H411.99C409.913 22.1922 409.144 22.8197 409.144 24.214V30.8358H404.968C404.594 30.8358 404.408 30.6497 404.408 30.2782V9.71495C404.408 8.62299 405.014 8.13501 406.624 8.13501H416.377C422.046 8.13501 425.475 9.62244 425.475 15.1289C425.475 19.3811 423.423 21.054 420.879 21.7043Z" fill="black" fill-opacity="0.3"/>
<path fill-rule="evenodd" clip-rule="evenodd" d="M520.63 16.4414C520.63 15.5035 521.374 15.1428 522.587 15.1428C524.335 15.1428 526.519 15.696 528.267 16.6821V11.0301C526.373 10.2365 524.48 9.92383 522.587 9.92383C517.928 9.92383 514.838 12.4733 514.838 16.7303C514.838 23.3679 523.542 22.3098 523.542 25.1719C523.542 26.2779 522.636 26.6388 521.341 26.6388C519.449 26.6388 517.022 25.821 515.097 24.7148V30.4387C517.216 31.4007 519.368 31.8095 521.341 31.8095C526.114 31.8095 529.399 29.3325 529.399 25.0274C529.367 17.8605 520.63 19.135 520.63 16.4414ZM536.13 5.11401L530.532 6.36455L530.516 25.6288C530.516 29.1884 533.056 31.8096 536.453 31.8096C538.33 31.8096 539.705 31.4489 540.466 31.0161V26.1337C539.737 26.4466 536.114 27.5527 536.114 23.9933V15.4555H540.466V10.3329H536.114L536.13 5.11401ZM547.584 12.1127L547.229 10.3331H542.278V31.3769H548.005V17.1152C549.349 15.2635 551.646 15.6002 552.357 15.8646V10.3331C551.63 10.0445 548.944 9.51533 547.584 12.1127ZM553.748 10.333H559.507V31.3768H553.748V10.333ZM553.748 8.5051L559.507 7.20639V2.32422L553.748 3.59892V8.50493V8.5051ZM571.481 9.92383C569.232 9.92383 567.776 11.0301 566.983 11.7998L566.677 10.3087H561.644V38.351L567.371 37.0765L567.388 30.2703C568.213 30.8955 569.426 31.7854 571.45 31.7854C575.559 31.7854 579.296 28.3223 579.296 20.6985C579.264 13.7238 575.494 9.92383 571.481 9.92383ZM570.106 26.495C568.747 26.495 567.938 25.9901 567.387 25.3647L567.371 16.442C567.97 15.7447 568.795 15.2637 570.106 15.2637C572.177 15.2637 573.633 17.7166 573.633 20.8673C573.633 24.0901 572.209 26.495 570.106 26.495ZM597.352 20.9388C597.352 14.782 594.505 9.92383 589.085 9.92383C583.617 9.92383 580.316 14.7822 580.316 20.8908C580.316 28.1298 584.215 31.7854 589.813 31.7854C592.53 31.7854 594.601 31.1361 596.155 30.2222V25.4121C594.601 26.2299 592.806 26.7351 590.541 26.7351C588.325 26.7351 586.35 25.9173 586.092 23.0793H597.303C597.303 22.7666 597.352 21.516 597.352 20.9388ZM586.027 18.6542C586.027 15.9366 587.612 14.8062 589.052 14.8062C590.46 14.8062 591.948 15.9366 591.948 18.6542H586.027Z" fill="black" fill-opacity="0.3"/>
<path fill-rule="evenodd" clip-rule="evenodd" d="M182.792 16.4414C182.792 15.5035 183.536 15.1428 184.749 15.1428C186.497 15.1428 188.681 15.696 190.429 16.6821V11.0301C188.536 10.2365 186.642 9.92383 184.749 9.92383C180.09 9.92383 177 12.4733 177 16.7303C177 23.3679 185.705 22.3098 185.705 25.1719C185.705 26.2779 184.798 26.6388 183.503 26.6388C181.611 26.6388 179.184 25.821 177.259 24.7148V30.4387C179.378 31.4007 181.53 31.8095 183.503 31.8095C188.276 31.8095 191.561 29.3325 191.561 25.0274C191.529 17.8605 182.792 19.135 182.792 16.4414ZM198.292 5.11401L192.694 6.36455L192.678 25.6288C192.678 29.1884 195.218 31.8096 198.615 31.8096C200.492 31.8096 201.867 31.4489 202.628 31.0161V26.1337C201.9 26.4466 198.276 27.5527 198.276 23.9933V15.4555H202.628V10.3329H198.276L198.292 5.11401ZM209.747 12.1127L209.391 10.3331H204.44V31.3769H210.167V17.1152C211.511 15.2635 213.808 15.6002 214.52 15.8646V10.3331C213.792 10.0445 211.106 9.51533 209.747 12.1127ZM215.91 10.333H221.669V31.3768H215.91V10.333ZM215.91 8.5051L221.669 7.20639V2.32422L215.91 3.59892V8.50493V8.5051ZM233.643 9.92383C231.394 9.92383 229.938 11.0301 229.145 11.7998L228.839 10.3087H223.807V38.351L229.534 37.0765L229.55 30.2703C230.375 30.8955 231.588 31.7854 233.612 31.7854C237.721 31.7854 241.459 28.3223 241.459 20.6985C241.426 13.7238 237.656 9.92383 233.643 9.92383ZM232.268 26.495C230.909 26.495 230.101 25.9901 229.55 25.3647L229.533 16.442C230.132 15.7447 230.957 15.2637 232.268 15.2637C234.339 15.2637 235.795 17.7166 235.795 20.8673C235.795 24.0901 234.371 26.495 232.268 26.495ZM259.514 20.9388C259.514 14.782 256.667 9.92383 251.247 9.92383C245.779 9.92383 242.478 14.7822 242.478 20.8908C242.478 28.1298 246.377 31.7854 251.976 31.7854C254.693 31.7854 256.764 31.1361 258.317 30.2222V25.4121C256.764 26.2299 254.968 26.7351 252.703 26.7351C250.487 26.7351 248.512 25.9173 248.254 23.0793H259.466C259.466 22.7666 259.514 21.516 259.514 20.9388ZM248.189 18.6542C248.189 15.9366 249.774 14.8062 251.214 14.8062C252.622 14.8062 254.11 15.9366 254.11 18.6542H248.189Z" fill="black" fill-opacity="0.3"/>
<path fill-rule="evenodd" clip-rule="evenodd" d="M1122.98 32.0798V20.8579C1122.98 16.6234 1120.29 13.7731 1115.97 13.7357C1113.47 13.5726 1111.07 14.7936 1109.72 16.9227C1108.49 14.8564 1106.23 13.6335 1103.84 13.7357C1101.76 13.6346 1099.78 14.6474 1098.63 16.399V14.1547H1094.76V32.0798H1098.67V22.1522C1098.67 19.0399 1100.38 17.3941 1103.03 17.3941C1105.67 17.3941 1106.9 19.0773 1106.9 22.1148V32.0798H1110.79V22.1522C1110.79 19.0399 1112.57 17.3941 1115.15 17.3941C1117.72 17.3941 1119.06 19.0773 1119.06 22.1148V32.0798H1122.98ZM1180.85 14.1705H1174.53V8.73901H1170.61V14.1705H1167V17.7316H1170.61V25.8937C1170.61 30.0533 1172.22 32.5295 1176.79 32.5295C1178.5 32.5351 1180.18 32.0555 1181.63 31.1455L1180.51 27.8088C1179.48 28.4317 1178.3 28.7792 1177.08 28.8188C1175.16 28.8188 1174.52 27.6218 1174.52 25.8263V17.7316H1180.85V14.1705ZM1213.89 13.7212C1211.97 13.6649 1210.17 14.6726 1209.19 16.3473V14.1702H1205.36V32.0804H1209.24V22.0405C1209.24 19.048 1210.5 17.432 1213.04 17.432C1213.87 17.4199 1214.69 17.5724 1215.46 17.8809L1216.64 14.2076C1215.76 13.8889 1214.83 13.7245 1213.89 13.7212ZM1163.94 15.5913C1161.75 14.2801 1159.23 13.6309 1156.68 13.7209C1152.17 13.7209 1149.24 15.898 1149.24 19.4516C1149.24 22.3768 1151.4 24.1723 1155.38 24.7334L1157.21 24.9952C1159.32 25.2945 1160.34 25.8556 1160.34 26.8655C1160.34 28.2495 1158.92 29.0426 1156.28 29.0426C1154.14 29.1108 1152.05 28.4519 1150.33 27.1723L1148.57 30.2022C1150.82 31.7892 1153.52 32.6048 1156.28 32.5288C1161.41 32.5288 1164.39 30.0899 1164.39 26.686C1164.39 23.5364 1162.05 21.8905 1158.18 21.3294L1156.36 21.0675C1154.69 20.8431 1153.34 20.5064 1153.34 19.3095C1153.34 18.0002 1154.6 17.2147 1156.73 17.2147C1158.68 17.2436 1160.59 17.7715 1162.28 18.7484L1163.94 15.5913ZM1267.69 13.7212C1265.77 13.6649 1263.97 14.6726 1263 16.3473V14.1702H1259.17V32.0804H1263.04V22.0405C1263.04 19.048 1264.31 17.432 1266.84 17.432C1267.66 17.4199 1268.49 17.5724 1269.26 17.8809L1270.45 14.2076C1269.57 13.8889 1268.63 13.7245 1267.69 13.7212ZM1217.81 23.1254C1217.81 28.5569 1221.56 32.5294 1227.3 32.5294C1229.63 32.6451 1231.9 31.8819 1233.71 30.3897L1231.85 27.2402C1230.5 28.2662 1228.87 28.8303 1227.19 28.8486C1224.09 28.8486 1221.83 26.5594 1221.83 23.118C1221.83 19.6766 1224.11 17.4247 1227.19 17.3872C1228.87 17.4056 1230.5 17.9697 1231.85 18.9958L1233.71 15.8461C1231.9 14.354 1229.63 13.5908 1227.3 13.7065C1221.56 13.7065 1217.81 17.679 1217.81 23.1105V23.1254ZM1254.08 23.1253V14.1479H1250.21V16.3248C1248.86 14.5848 1246.77 13.6061 1244.58 13.6989C1239.59 13.6989 1235.66 17.6341 1235.66 23.1029C1235.66 28.5718 1239.57 32.5069 1244.58 32.5069C1246.77 32.5998 1248.86 31.621 1250.21 29.881V32.0505H1254.08V23.1253ZM1239.67 23.1252C1239.67 19.9756 1241.71 17.3945 1245.06 17.3945C1248.27 17.3945 1250.43 19.8709 1250.43 23.1252C1250.43 26.3796 1248.27 28.8559 1245.06 28.8559C1241.71 28.8559 1239.67 26.2673 1239.67 23.1252ZM1192.92 13.7208C1187.72 13.7208 1184.06 17.5437 1184.06 23.1248C1184.06 28.8181 1187.86 32.5288 1193.18 32.5288C1195.84 32.6226 1198.44 31.7276 1200.48 30.0151L1198.58 27.1273C1197.11 28.3178 1195.27 28.9762 1193.38 28.9977C1190.88 28.9977 1188.61 27.8381 1188.05 24.6136H1201.28C1201.32 24.1273 1201.35 23.641 1201.35 23.1174C1201.35 17.5363 1197.89 13.7134 1192.9 13.7134L1192.92 13.7208ZM1192.84 17.2078C1195.34 17.2078 1196.95 18.7788 1197.35 21.5544H1188.12C1188.53 18.9658 1190.1 17.2078 1192.85 17.2078H1192.84ZM1290 23.125V6.9729H1286.13V16.3395C1284.78 14.5995 1282.69 13.6207 1280.51 13.7136C1275.52 13.7136 1271.58 17.6488 1271.58 23.1175C1271.58 28.5863 1275.5 32.5215 1280.51 32.5215C1282.69 32.6144 1284.78 31.6356 1286.13 29.8956V32.0651H1290V23.125ZM1275.6 23.1252C1275.6 19.9756 1277.65 17.3945 1281 17.3945C1284.21 17.3945 1286.36 19.8709 1286.36 23.1252C1286.36 26.3796 1284.21 28.8559 1281 28.8559C1277.65 28.8559 1275.6 26.2673 1275.6 23.1252ZM1144.8 23.1254V14.1479H1140.93V16.3249C1139.59 14.5999 1137.5 13.6307 1135.33 13.7214C1130.34 13.7214 1126.41 17.6566 1126.41 23.1254C1126.41 28.5943 1130.32 32.5294 1135.33 32.5294C1137.52 32.6223 1139.61 31.6435 1140.95 29.9035V32.0731H1144.82L1144.8 23.1254ZM1130.39 23.1252C1130.39 19.9756 1132.44 17.3945 1135.79 17.3945C1138.99 17.3945 1141.15 19.8709 1141.15 23.1252C1141.15 26.3796 1138.99 28.8559 1135.79 28.8559C1132.44 28.8559 1130.39 26.2748 1130.39 23.1252Z" fill="black" fill-opacity="0.3"/>
</g>
</svg>
